<svg xmlns="http://www.w3.org/2000/svg" xmlns:xlink="http://www.w3.org/1999/xlink" width="500" zoomAndPan="magnify" viewBox="0 0 375 374.999991" height="500" preserveAspectRatio="xMidYMid meet" version="1.0"><defs><clipPath id="49772723e9"><path d="M 33.117188 78 L 342 78 L 342 304.726562 L 33.117188 304.726562 Z M 33.117188 78 " clip-rule="nonzero"/></clipPath><clipPath id="fd9d36358b"><path d="M 222.46875 292.601562 L 234.890625 292.601562 L 234.890625 305.023438 L 222.46875 305.023438 Z M 222.46875 292.601562 " clip-rule="nonzero"/></clipPath><clipPath id="a6cdef194a"><path d="M 228.679688 292.601562 C 225.25 292.601562 222.46875 295.382812 222.46875 298.8125 C 222.46875 302.242188 225.25 305.023438 228.679688 305.023438 C 232.109375 305.023438 234.890625 302.242188 234.890625 298.8125 C 234.890625 295.382812 232.109375 292.601562 228.679688 292.601562 Z M 228.679688 292.601562 " clip-rule="nonzero"/></clipPath></defs><rect x="-37.5" width="450" fill="#ffffff" y="-37.499999" height="449.999989" fill-opacity="1"/><rect x="-37.5" width="450" fill="#ffffff" y="-37.499999" height="449.999989" fill-opacity="1"/><g clip-path="url(#49772723e9)"><path fill="#101827" d="M 224.222656 305.636719 L 134.085938 305.636719 C 78.484375 305.636719 33.25 260.402344 33.25 204.800781 C 33.25 177.875 43.738281 152.546875 62.792969 133.496094 L 95.082031 101.191406 C 125.785156 70.472656 175.761719 70.472656 206.464844 101.191406 L 219.917969 114.648438 L 312.363281 114.648438 C 328.566406 114.648438 341.746094 127.824219 341.746094 144.027344 C 341.746094 160.230469 328.566406 173.410156 312.363281 173.410156 L 279.03125 173.410156 C 281.542969 177.726562 282.984375 182.75 282.984375 188.097656 C 282.984375 200.894531 274.757812 211.808594 263.3125 215.832031 C 266.457031 220.503906 268.292969 226.132812 268.292969 232.167969 C 268.292969 244.964844 260.066406 255.878906 248.625 259.902344 C 251.769531 264.574219 253.605469 270.203125 253.605469 276.238281 C 253.605469 292.457031 240.425781 305.636719 224.222656 305.636719 Z M 150.773438 92.863281 C 134.363281 92.863281 117.96875 99.105469 105.46875 111.59375 L 73.179688 143.894531 C 56.902344 160.171875 47.941406 181.796875 47.941406 204.800781 C 47.941406 252.292969 86.589844 290.945312 134.085938 290.945312 L 224.222656 290.945312 C 232.332031 290.945312 238.914062 284.347656 238.914062 276.253906 C 238.914062 268.160156 232.332031 261.5625 224.222656 261.5625 C 220.167969 261.5625 216.878906 258.273438 216.878906 254.21875 C 216.878906 250.164062 220.167969 246.875 224.222656 246.875 L 238.914062 246.875 C 247.023438 246.875 253.605469 240.277344 253.605469 232.183594 C 253.605469 224.089844 247.023438 217.492188 238.914062 217.492188 L 231.570312 217.492188 C 227.515625 217.492188 224.222656 214.203125 224.222656 210.148438 C 224.222656 206.09375 227.515625 202.804688 231.570312 202.804688 L 253.605469 202.804688 C 261.714844 202.804688 268.292969 196.207031 268.292969 188.113281 C 268.292969 180.019531 261.714844 173.421875 253.605469 173.421875 L 216.878906 173.421875 C 212.824219 173.421875 209.535156 170.132812 209.535156 166.078125 C 209.535156 162.023438 212.824219 158.734375 216.878906 158.734375 L 312.363281 158.734375 C 320.472656 158.734375 327.054688 152.136719 327.054688 144.042969 C 327.054688 135.949219 320.472656 129.351562 312.363281 129.351562 L 158.117188 129.351562 C 154.0625 129.351562 150.773438 126.0625 150.773438 122.007812 C 150.773438 117.953125 154.0625 114.664062 158.117188 114.664062 L 199.148438 114.664062 L 196.078125 111.59375 C 183.574219 99.105469 167.183594 92.863281 150.773438 92.863281 Z M 150.773438 92.863281 " fill-opacity="1" fill-rule="nonzero"/></g><g clip-path="url(#fd9d36358b)"><g clip-path="url(#a6cdef194a)"><path fill="#101827" d="M 222.46875 292.601562 L 234.890625 292.601562 L 234.890625 305.023438 L 222.46875 305.023438 Z M 222.46875 292.601562 " fill-opacity="1" fill-rule="nonzero"/></g></g></svg>